HIERARCHY
ROOT Pelvis
{
	OFFSET 0.000000 0.000000 0.000000
	CHANNELS 6 Xposition Yposition Zposition Xrotation Yrotation Zrotation
	JOINT LeftUpLeg_virtual
	{
		OFFSET 0.000000 0.000000 0.000000
		CHANNELS 3 Xrotation Yrotation Zrotation
		JOINT LeftUpLeg
		{
			OFFSET 18.735201 -5.666702 -4.541200
			CHANNELS 3 Xrotation Yrotation Zrotation
			JOINT LeftLeg
			{
				OFFSET -0.021200 -31.938179 0.493100
				CHANNELS 3 Xrotation Yrotation Zrotation
				JOINT LeftFoot
				{
					OFFSET 0.021200 -31.938179 -4.336299
					CHANNELS 3 Xrotation Yrotation Zrotation
					JOINT LeftToeBase
					{
						OFFSET 0.943001 -26.722000 15.023500
						CHANNELS 3 Xrotation Yrotation Zrotation
						End Site
						{
							OFFSET 0 0 0
						}
					}
				}
			}
		}
	}
	JOINT RightUpLeg_virtual
	{
		OFFSET 0.000000 0.000000 0.000000
		CHANNELS 3 Xrotation Yrotation Zrotation
		JOINT RightUpLeg
		{
			OFFSET -18.735201 -5.666702 -4.541200
			CHANNELS 3 Xrotation Yrotation Zrotation
			JOINT RightLeg
			{
				OFFSET 0.018946 -31.938133 0.493100
				CHANNELS 3 Xrotation Yrotation Zrotation
				JOINT RightFoot
				{
					OFFSET -0.018946 -31.938126 -4.336299
					CHANNELS 3 Xrotation Yrotation Zrotation
					JOINT RightToeBase
					{
						OFFSET -0.943001 -26.722004 15.023500
						CHANNELS 3 Xrotation Yrotation Zrotation
						End Site
						{
							OFFSET 0 0 0
						}
					}
				}
			}
		}
	}
	JOINT Hips_virtual
	{
		OFFSET 0.000000 0.000000 0.000000
		CHANNELS 3 Xrotation Yrotation Zrotation
		JOINT Hips
		{
			OFFSET -0.000000 -0.000000 -0.000000
			CHANNELS 3 Xrotation Yrotation Zrotation
			JOINT Spine
			{
				OFFSET 0.000000 10.199997 -0.299500
				CHANNELS 3 Xrotation Yrotation Zrotation
				JOINT Spine1
				{
					OFFSET 0.000000 11.900002 -1.516600
					CHANNELS 3 Xrotation Yrotation Zrotation
					JOINT Spine2
					{
						OFFSET 0.000000 13.600006 -2.842500
						CHANNELS 3 Xrotation Yrotation Zrotation
						JOINT Neck_virtual
						{
							OFFSET 0.000000 0.000000 0.000000
							CHANNELS 3 Xrotation Yrotation Zrotation
							JOINT Neck
							{
								OFFSET 0.000000 9.624100 -2.890100
								CHANNELS 3 Xrotation Yrotation Zrotation
								JOINT Head
								{
									OFFSET 0.000000 14.068802 -1.351900
									CHANNELS 3 Xrotation Yrotation Zrotation
									End Site
									{
										OFFSET 0 0 0
									}
								}
							}
						}
						JOINT LeftShoulder_virtual
						{
							OFFSET 0.000000 0.000000 0.000000
							CHANNELS 3 Xrotation Yrotation Zrotation
							JOINT LeftShoulder
							{
								OFFSET 15.263000 10.923401 -0.547700
								CHANNELS 3 Xrotation Yrotation Zrotation
								JOINT LeftArm
								{
									OFFSET 25.438599 -2.830597 -13.032500
									CHANNELS 3 Xrotation Yrotation Zrotation
									JOINT LeftForeArm
									{
										OFFSET 29.960503 0.000000 0.000000
										CHANNELS 3 Xrotation Yrotation Zrotation
										JOINT LeftHand
										{
											OFFSET 27.849251 0.000000 0.000000
											CHANNELS 3 Xrotation Yrotation Zrotation
											End Site
											{
												OFFSET 0 0 0
											}
										}
									}
								}
							}
						}
						JOINT RightShoulder_virtual
						{
							OFFSET 0.000000 0.000000 0.000000
							CHANNELS 3 Xrotation Yrotation Zrotation
							JOINT RightShoulder
							{
								OFFSET -15.263000 10.923401 -0.547700
								CHANNELS 3 Xrotation Yrotation Zrotation
								JOINT RightArm
								{
									OFFSET -25.438599 -2.830597 -13.032500
									CHANNELS 3 Xrotation Yrotation Zrotation
									JOINT RightForeArm
									{
										OFFSET -29.960503 0.000000 0.000000
										CHANNELS 3 Xrotation Yrotation Zrotation
										JOINT RightHand
										{
											OFFSET -27.849251 0.000000 0.000000
											CHANNELS 3 Xrotation Yrotation Zrotation
											End Site
											{
												OFFSET 0 0 0
											}
										}
									}
								}
							}
						}
					}
				}
			}
		}
	}
}
MOTION
Frames: 8
Frame Time: 0.03333333
15.974342 81.536690 61.402138 0.000000 0.000000 0.000000 28.109959 54.294366 -22.209595 -49.084133 26.499027 26.741862 40.257149 -24.999303 -2.771955 -16.807598 -19.995415 -26.022662 0.000000 0.000000 0.000000 -43.049484 83.020369 35.837053 -51.256567 19.258313 -12.556102 25.385508 -6.114727 7.257151 -23.644083 -13.646855 17.704465 0.000000 0.000000 0.000000 47.002780 63.289626 -31.719614 30.627675 67.251204 -34.099296 15.938728 11.235075 -15.821597 11.669960 7.562702 -11.568640 0.000000 0.000000 0.000000 6.361051 13.136995 -9.298947 -1.809276 2.649484 -0.164924 0.000000 0.000000 0.000000 1.875592 14.835159 -9.624434 -1.831357 4.807302 -5.857262 -28.592453 35.157668 -54.349243 -20.352248 -26.998712 -10.308208 0.000000 0.000000 0.000000 4.946575 12.573996 -9.622475 0.514977 21.538711 -15.838625 62.465195 53.120099 -10.209612 28.856634 62.212853 0.695225 0.000000 0.000000 0.000000 
16.441490 80.616219 60.324944 0.000000 0.000000 0.000000 26.127608 52.851355 -19.413459 -48.434299 25.744658 27.173108 39.427315 -24.343347 -2.828539 -17.046404 -19.485345 -25.511148 0.000000 0.000000 0.000000 -36.810079 81.906167 29.111339 -51.241517 19.115597 -12.860273 24.400057 -5.555273 7.305559 -24.200480 -13.255025 18.099218 0.000000 0.000000 0.000000 45.635803 62.770217 -30.143670 18.586090 64.541203 -23.313278 15.462850 10.993063 -15.499231 11.486083 7.407594 -11.419696 0.000000 0.000000 0.000000 6.362419 13.056692 -9.202936 -1.837663 2.675184 -0.135671 0.000000 0.000000 0.000000 1.861272 14.575663 -9.664862 -1.948233 4.571712 -6.363529 -27.255868 34.226973 -54.764166 -19.599791 -27.820914 -10.083539 0.000000 0.000000 0.000000 5.212868 12.408054 -9.715906 0.778457 21.117159 -16.333400 63.047960 52.298103 -9.945188 29.732182 62.738832 -0.252804 0.000000 0.000000 0.000000 
16.330332 80.312637 59.890869 0.000000 0.000000 0.000000 25.255825 52.346963 -18.035630 -47.996170 25.406806 27.472001 39.096915 -23.683379 -3.073774 -16.958345 -18.881442 -25.358011 0.000000 0.000000 0.000000 -35.133130 81.430349 27.169154 -51.215630 19.161377 -12.878588 24.677547 -4.786805 7.112743 -24.006776 -12.493040 18.238552 0.000000 0.000000 0.000000 44.426392 62.364811 -29.084892 11.610189 62.423080 -19.758132 14.827062 10.700635 -15.225190 11.219239 7.219794 -11.292114 0.000000 0.000000 0.000000 6.109957 12.968704 -9.074179 -1.960190 2.719753 -0.112269 0.000000 0.000000 0.000000 1.865834 14.334643 -9.716151 -2.005760 4.474179 -6.932578 -26.314043 33.215999 -54.774265 -18.748900 -28.329004 -9.706679 0.000000 0.000000 0.000000 5.280567 12.314129 -9.984585 1.095821 21.002886 -17.693361 62.185013 52.319338 -10.011341 30.055448 64.430097 -1.646675 0.000000 0.000000 0.000000 
16.241426 80.167427 60.024323 0.000000 0.000000 0.000000 24.534333 53.831152 -17.195814 -48.184304 25.321676 28.119609 39.078545 -22.653653 -3.293911 -16.518901 -18.018614 -24.997205 0.000000 0.000000 0.000000 -31.534154 81.159019 23.618798 -50.481556 19.246799 -13.044289 26.145389 -3.604557 6.981921 -22.948496 -11.339974 18.730773 0.000000 0.000000 0.000000 43.548361 62.112634 -28.367697 6.820624 61.497213 -18.065558 14.353473 10.476837 -15.013143 11.008035 7.054339 -11.190975 0.000000 0.000000 0.000000 5.880649 12.854835 -8.954682 -2.062148 2.788111 -0.095670 0.000000 0.000000 0.000000 1.936585 14.027125 -9.826492 -1.974046 4.384853 -7.724553 -24.830302 31.410107 -54.741989 -17.426507 -29.231560 -9.133974 0.000000 0.000000 0.000000 5.080551 12.237242 -9.720296 0.847738 21.008362 -16.834302 58.328593 53.592198 -4.809696 27.575834 65.873759 0.810018 0.000000 0.000000 0.000000 
15.903185 80.214401 60.791039 0.000000 0.000000 0.000000 25.102593 56.735724 -17.763509 -48.371068 25.778073 28.767114 39.371936 -21.459522 -3.489771 -15.881167 -16.989512 -24.536201 0.000000 0.000000 0.000000 -25.168011 81.101564 16.981732 -49.212193 19.698436 -13.801849 27.747937 -2.319726 6.634266 -21.821063 -9.965818 18.995306 0.000000 0.000000 0.000000 42.717659 61.651296 -27.685236 4.436989 60.398898 -18.568393 13.839892 10.069546 -14.808817 10.777400 6.791219 -11.091934 0.000000 0.000000 0.000000 5.563119 12.655643 -8.856517 -2.202312 2.833828 -0.110322 0.000000 0.000000 0.000000 1.920302 13.595836 -9.901491 -2.037261 4.039633 -8.450447 -24.013050 29.234275 -54.458703 -16.422129 -30.833823 -8.719019 0.000000 0.000000 0.000000 4.887759 12.049007 -9.576860 0.668242 20.798846 -16.560299 54.543483 54.491625 -0.073371 25.332729 67.529630 2.774042 0.000000 0.000000 0.000000 
15.536453 80.150909 60.985012 0.000000 0.000000 0.000000 26.260657 60.179076 -19.036195 -48.763251 26.403551 29.476972 39.763756 -20.262393 -3.611551 -15.219970 -15.967020 -23.982299 0.000000 0.000000 0.000000 -20.700487 81.231617 12.481500 -48.081380 20.069831 -14.297838 29.238687 -1.055032 6.460555 -20.841149 -8.688445 19.499085 0.000000 0.000000 0.000000 42.094374 61.508592 -27.295410 3.553786 60.909947 -19.944397 13.443041 9.669238 -14.627050 10.615942 6.505657 -10.999507 0.000000 0.000000 0.000000 5.199220 12.389188 -8.733281 -2.346811 2.859757 -0.127858 0.000000 0.000000 0.000000 1.864345 13.085790 -9.981784 -2.129455 3.577613 -9.213859 -23.429314 26.513490 -53.634549 -15.294715 -32.928892 -8.123229 0.000000 0.000000 0.000000 4.512998 11.796911 -9.344880 0.290519 20.432451 -16.062134 49.171266 55.214990 6.115497 21.801858 69.006446 5.954250 0.000000 0.000000 0.000000 
15.206017 80.388977 61.112892 0.000000 0.000000 0.000000 27.651609 62.149496 -20.145231 -48.083415 27.047819 29.728610 40.290835 -19.210424 -3.653882 -14.485190 -15.126750 -23.457156 0.000000 0.000000 0.000000 -15.261453 80.784732 6.894495 -46.795443 20.374480 -14.901852 30.335920 0.180227 6.312111 -20.066560 -7.456343 20.051702 0.000000 0.000000 0.000000 41.023359 61.087491 -26.481221 3.198189 61.051161 -21.474173 12.972910 9.190275 -14.417734 10.395437 6.179018 -10.888976 0.000000 0.000000 0.000000 4.851212 12.069036 -8.633929 -2.478809 2.876925 -0.158746 0.000000 0.000000 0.000000 1.715541 12.496244 -10.061728 -2.340570 3.019783 -9.990062 -23.413313 23.856917 -52.536401 -14.374058 -35.126768 -7.563065 0.000000 0.000000 0.000000 4.147523 11.456146 -9.177302 -0.001400 19.787896 -15.932291 43.897773 55.579766 12.285401 17.927848 70.600667 9.392354 0.000000 0.000000 0.000000 
14.900902 80.643723 60.412628 0.000000 0.000000 0.000000 29.388948 62.898263 -21.460284 -47.050117 27.649275 29.621612 41.131276 -18.322561 -3.649643 -13.708736 -14.378189 -22.982784 0.000000 0.000000 0.000000 -11.032354 80.574915 2.580673 -45.687610 20.664358 -15.455133 31.320871 1.335541 6.129573 -19.483994 -6.285461 20.490641 0.000000 0.000000 0.000000 39.394291 60.009967 -24.905030 3.074077 59.519628 -22.156697 12.412894 8.489652 -14.207185 10.130822 5.730142 -10.779614 0.000000 0.000000 0.000000 4.651368 11.583438 -8.550967 -2.540217 2.832387 -0.203887 0.000000 0.000000 0.000000 1.569457 11.839038 -10.155465 -2.570798 2.430033 -10.830713 -23.637222 21.632614 -51.065114 -13.589383 -36.769804 -6.887976 0.000000 0.000000 0.000000 3.870885 10.994405 -9.084426 -0.163316 18.853912 -16.233041 39.204538 55.145831 17.550680 14.157182 71.752066 12.560387 0.000000 0.000000 0.000000 
